<svg width="320" height="47" viewBox="0 0 320 47" fill="none" xmlns="http://www.w3.org/2000/svg">
<g clip-path="url(#clip0_4_3)">
<path d="M34.7788 0.859239L36.559 0.0429688L34.7788 8.5064C34.692 7.69013 34.4315 6.8309 34.0407 6.01463C33.1723 4.33913 31.7829 3.4799 29.9159 3.4799H21.0583V4.0384L21.0149 28.011V42.1024C21.0149 42.7468 21.1886 43.3053 21.5794 43.8638C21.9267 44.3793 22.4478 44.8949 23.0991 45.3675C23.7503 45.84 24.3582 46.1837 25.0095 46.3985H11.5495C12.1574 46.1837 12.8087 45.883 13.46 45.3675C14.7191 44.4653 15.4138 43.3483 15.5441 42.1024V27.968L15.5007 3.99544L15.4573 3.43694H6.64315C4.7327 3.43694 3.3867 4.29617 2.4749 5.97167C2.2578 6.40129 2.08412 6.8309 1.95387 7.21756C1.82361 7.64717 1.73677 8.03383 1.73677 8.46344L0 0.0429688L1.78019 0.859239H34.7788Z" fill="white"/>
<path d="M77.3732 4.33913V42.1024C77.3732 42.7468 77.5468 43.3053 77.9376 43.8638C78.285 44.3793 78.806 44.8949 79.4573 45.3675C80.1086 45.84 80.7164 46.1837 81.3677 46.3985H67.9512C68.5591 46.1837 69.2103 45.883 69.8616 45.3675C70.5129 44.8949 70.9905 44.3793 71.3813 43.8638C71.7287 43.3483 71.9458 42.7468 71.9458 42.1024V22.5549H46.1981V42.1024C46.1981 42.7468 46.3718 43.3053 46.7626 43.8638C47.1099 44.3793 47.631 44.8949 48.2823 45.3675C48.9335 45.84 49.5848 46.1837 50.1927 46.3985H36.7327C37.3406 46.1837 37.9919 45.84 38.6432 45.3675C39.2945 44.8949 39.8155 44.3793 40.1628 43.8638C40.5102 43.3483 40.7273 42.7468 40.7273 42.1024V4.33913C40.7273 3.69471 40.5536 3.1362 40.1628 2.5777C39.8155 2.06216 39.2945 1.54663 38.6432 1.07405C37.9919 0.60147 37.384 0.257777 36.7327 0.0429688H50.1493C49.5414 0.257777 48.8901 0.60147 48.2388 1.07405C47.5875 1.54663 47.1099 2.06216 46.7192 2.5777C46.3718 3.09324 46.1547 3.69471 46.1547 4.33913V19.3757H71.9023V4.33913C71.9023 3.69471 71.7287 3.1362 71.3379 2.5777C70.9905 2.06216 70.4695 1.54663 69.8182 1.07405C69.1669 0.60147 68.5156 0.257777 67.9078 0.0429688H81.3243C80.7164 0.257777 80.0652 0.60147 79.4139 1.07405C78.7626 1.54663 78.2415 2.06216 77.8942 2.5777C77.5468 3.09324 77.3732 3.69471 77.3732 4.33913Z" fill="white"/>
<path d="M103.512 24.9177C104.293 25.6481 105.161 26.5503 106.03 27.6243C106.942 28.6984 107.853 29.9872 108.896 31.4909C111.501 35.3144 113.845 38.1929 115.843 40.1691C119.403 43.606 122.703 45.0238 125.612 44.4223C125.482 44.723 125.091 45.0667 124.396 45.4104C123.094 46.0548 121.14 46.3985 118.491 46.3985C115.886 46.3985 112.673 44.1645 108.939 39.7395C107.984 38.6225 107.115 37.5055 106.334 36.3885C105.552 35.2715 104.814 34.1545 104.119 33.0375C103.815 32.5219 103.425 31.9634 102.904 31.4479C102.426 30.9324 101.818 30.3739 101.123 29.8583C98.3446 27.7102 94.9145 26.6362 90.9199 26.6362V42.1024C90.9199 42.7468 91.0936 43.3053 91.4844 43.8638C91.8317 44.3793 92.3528 44.8949 93.004 45.3675C93.6553 45.84 94.3066 46.1837 94.9145 46.3556H81.5848C82.1926 46.1408 82.8439 45.84 83.4952 45.3675C84.1465 44.8949 84.6241 44.3793 85.0149 43.8638C85.3623 43.3483 85.5794 42.7468 85.5794 42.1024V4.59689C85.5794 3.95246 85.4057 3.39396 85.0149 2.83546C84.6675 2.31992 84.1465 1.80438 83.4952 1.33181C82.8439 0.859229 82.2361 0.515536 81.5848 0.300728H90.9633C94.2198 -0.214812 97.5197 -0.17185 100.776 0.515536C107.332 1.84735 110.632 5.49908 110.632 11.4707C110.719 12.5448 110.502 13.9196 109.981 15.5951C108.852 18.9461 106.725 22.0393 103.512 24.9177ZM90.9633 23.3711H98.7788C99.2998 23.3711 99.8643 23.2852 100.385 23.0704C100.906 22.8556 101.471 22.5548 101.992 22.1682C104.119 20.6216 105.161 18.0439 105.161 14.3492C105.161 10.3537 104.076 7.21755 101.905 4.94058C100.125 3.09323 98.1275 2.14808 95.9131 2.14808C93.6988 2.14808 92.483 2.19104 92.1791 2.31992C91.4844 2.62065 91.137 3.56581 91.137 5.19835C91.137 6.40128 91.137 8.5064 91.0936 11.5137C91.0502 14.564 91.0068 18.5165 90.9633 23.3711Z" fill="white"/>
<path d="M137.943 2.53471C139.984 1.58955 141.981 0.902168 143.978 0.558475C145.976 0.171821 147.973 0.0429362 150.014 0.0858978C152.706 0.171821 155.311 0.730322 157.829 1.7614C160.347 2.79248 162.735 4.42502 165.037 6.61606C170.117 11.4278 172.635 17.2705 172.635 24.1444C172.635 30.8464 170.03 36.3885 164.776 40.7276C160.261 44.4652 155.311 46.3555 149.97 46.3555C144.152 46.3555 138.985 44.723 134.426 41.4579C128.695 37.3336 125.829 31.5338 125.829 23.9726C125.872 13.447 129.91 6.31533 137.943 2.53471ZM136.38 8.50637C133.254 12.1151 131.734 17.0128 131.734 23.2422C131.734 29.4716 133.297 34.3693 136.38 38.021C138.594 40.5987 141.46 42.3601 144.934 43.3912V3.17913C141.46 4.21021 138.594 5.97164 136.38 8.50637ZM147.886 43.9497V2.62063C147.626 2.66359 147.365 2.66359 147.104 2.70656C146.844 2.74952 146.583 2.79248 146.323 2.83544V43.649C146.844 43.8208 147.365 43.9067 147.886 43.9497ZM150.187 2.57767V44.0786C150.752 44.0786 151.36 44.0356 152.054 43.9497V2.92136C151.75 2.83544 151.446 2.79248 151.142 2.74952C150.795 2.66359 150.491 2.62063 150.187 2.57767ZM153.4 3.30802V43.6919C156.917 42.9186 159.826 41.329 162.041 38.9232C165.21 35.4863 166.773 30.5457 166.773 24.1444C166.773 17.7002 165.21 12.6307 162.041 8.89303C159.783 6.18645 156.917 4.3391 153.4 3.30802Z" fill="white"/>
<path d="M206.936 0.0429688H220.353C219.745 0.257777 219.094 0.60147 218.442 1.07405C217.791 1.54663 217.27 2.06216 216.923 2.5777C216.575 3.09324 216.358 3.69471 216.358 4.33913V46.3556L216.315 46.3126V46.3556L182.274 11.4278V42.1024C182.274 42.7468 182.448 43.3053 182.839 43.8638C183.186 44.3793 183.707 44.8949 184.358 45.3675C185.01 45.84 185.617 46.1837 186.269 46.3985H172.852C173.46 46.1837 174.111 45.84 174.763 45.3675C175.414 44.8949 175.935 44.3793 176.282 43.8638C176.63 43.3483 176.847 42.7468 176.847 42.1024V0.0429688L210.887 35.4004V4.33913C210.887 3.69471 210.714 3.1362 210.323 2.5777C209.976 2.06216 209.455 1.54663 208.803 1.07405C208.195 0.60147 207.544 0.257777 206.936 0.0429688Z" fill="white"/>
<path d="M224.651 36.6033C225.607 36.6033 226.388 36.947 227.083 37.5914C227.734 38.2358 228.081 39.0521 228.081 39.9972C228.081 40.9424 227.734 41.7587 227.083 42.4031C226.431 43.0475 225.607 43.3912 224.651 43.3912C223.696 43.3912 222.915 43.0475 222.22 42.4031C221.569 41.7587 221.221 40.9424 221.221 39.9972C221.221 39.0521 221.569 38.2788 222.22 37.5914C222.915 36.947 223.739 36.6033 224.651 36.6033Z" fill="white"/>
<path d="M244.537 22.5548C247.099 22.5548 249.227 23.4141 250.877 25.0896C252.526 26.808 253.395 29.128 253.395 32.1353V46.3556H247.36V32.9086C247.36 31.362 246.925 30.202 246.1 29.3857C245.275 28.5695 244.147 28.1399 242.714 28.1399C241.151 28.1399 239.891 28.6124 238.98 29.5576C238.024 30.5027 237.59 31.9634 237.59 33.8538V46.3556H231.555V13.9625H237.59V25.8199C239.023 23.6289 241.368 22.5548 244.537 22.5548Z" fill="white"/>
<path d="M278.448 43.4771C276.06 45.84 273.107 47 269.634 47C266.16 47 263.251 45.84 260.863 43.4771C258.475 41.1142 257.303 38.2358 257.303 34.7989C257.303 31.3619 258.475 28.4835 260.863 26.1206C263.251 23.7577 266.16 22.5978 269.634 22.5978C273.107 22.5978 276.016 23.7577 278.448 26.1206C280.836 28.4835 282.052 31.3619 282.052 34.7989C282.052 38.2358 280.879 41.1142 278.448 43.4771ZM265.161 39.3528C266.377 40.5557 267.853 41.1572 269.677 41.1572C271.501 41.1572 273.02 40.5557 274.236 39.3528C275.452 38.1499 276.06 36.6033 276.06 34.7559C276.06 32.9086 275.452 31.3619 274.236 30.159C273.02 28.9561 271.501 28.3546 269.677 28.3546C267.853 28.3546 266.377 28.9561 265.161 30.159C263.946 31.3619 263.381 32.9086 263.381 34.7559C263.381 36.6033 263.946 38.1499 265.161 39.3528Z" fill="white"/>
<path d="M291.387 29.7724C291.387 30.3738 291.821 30.8894 292.646 31.276C293.471 31.6627 294.469 32.0064 295.685 32.3071C296.858 32.6078 298.073 32.9515 299.246 33.4241C300.418 33.8537 301.417 34.627 302.285 35.6581C303.11 36.6892 303.544 38.021 303.544 39.6106C303.544 41.9735 302.632 43.8208 300.852 45.1097C299.072 46.3985 296.814 47.0429 294.122 47.0429C289.303 47.0429 286.046 45.1956 284.309 41.5438L289.563 38.6225C290.258 40.6417 291.777 41.6298 294.166 41.6298C296.336 41.6298 297.379 40.9853 297.379 39.6535C297.379 39.0521 296.944 38.5365 296.119 38.1499C295.294 37.7632 294.296 37.4195 293.08 37.1188C291.908 36.8181 290.692 36.4314 289.52 35.9588C288.347 35.4863 287.349 34.7559 286.48 33.7678C285.655 32.7797 285.221 31.4908 285.221 29.9872C285.221 27.7102 286.09 25.9058 287.783 24.574C289.476 23.2422 291.604 22.5978 294.122 22.5978C296.033 22.5978 297.769 23.0274 299.332 23.8866C300.896 24.7459 302.111 25.9488 303.023 27.5384L297.856 30.2449C297.118 28.6554 295.859 27.8821 294.122 27.8821C293.341 27.8821 292.689 28.0539 292.168 28.3976C291.647 28.7413 291.387 29.2139 291.387 29.7724Z" fill="white"/>
<path d="M320 28.9561H314.703V38.5795C314.703 39.3958 314.92 39.9543 315.311 40.3409C315.701 40.7276 316.309 40.8994 317.091 40.9853C317.872 41.0283 318.828 41.0283 320 40.9424V46.3555C315.832 46.8281 312.923 46.4415 311.229 45.1956C309.536 43.9497 308.668 41.7587 308.668 38.5795V28.9561H304.586V23.1992H308.668V18.5164L314.703 16.712V23.1992H320V28.9561Z" fill="white"/>
</g>
<defs>
<clipPath id="clip0_4_3">
<rect width="320" height="47" fill="white"/>
</clipPath>
</defs>
</svg>
