<svg width="116" height="30" viewBox="0 0 116 30" fill="none" xmlns="http://www.w3.org/2000/svg">
<path d="M0.12 0.999998H3.72V25.64H18.88V29H0.12V0.999998ZM24.4881 4.72C27.2615 1.94667 30.7015 0.559999 34.8081 0.559999C38.9148 0.559999 42.3548 1.94667 45.1281 4.72C47.9015 7.49333 49.2881 10.92 49.2881 15C49.2881 19.1067 47.9015 22.5467 45.1281 25.32C42.3815 28.0667 38.9415 29.44 34.8081 29.44C30.6748 29.44 27.2348 28.0667 24.4881 25.32C21.7415 22.5733 20.3681 19.1333 20.3681 15C20.3681 10.8933 21.7415 7.46667 24.4881 4.72ZM27.1681 22.84C29.2215 24.92 31.7681 25.96 34.8081 25.96C37.8481 25.96 40.3948 24.92 42.4481 22.84C44.5015 20.7067 45.5281 18.0933 45.5281 15C45.5281 11.9067 44.5015 9.30667 42.4481 7.2C40.4215 5.09333 37.8748 4.04 34.8081 4.04C31.7415 4.04 29.1948 5.09333 27.1681 7.2C25.1148 9.30667 24.0881 11.9067 24.0881 15C24.0881 18.0933 25.1148 20.7067 27.1681 22.84ZM53.3369 15C53.3369 10.8933 54.7369 7.45333 57.5369 4.68C60.3102 1.93333 63.8035 0.559999 68.0169 0.559999C70.7902 0.559999 73.2969 1.21333 75.5369 2.52C77.8035 3.8 79.5769 5.57333 80.8569 7.84L77.3369 9.16C76.3769 7.56 75.0702 6.30666 73.4169 5.4C71.7902 4.49333 69.9902 4.04 68.0169 4.04C64.9235 4.04 62.3235 5.09333 60.2169 7.2C58.1102 9.28 57.0569 11.88 57.0569 15C57.0569 18.12 58.0702 20.7333 60.0969 22.84C62.1235 24.92 64.6169 25.96 67.5769 25.96C70.1102 25.96 72.3635 25.1733 74.3369 23.6C76.3102 22 77.5102 19.96 77.9369 17.48H66.8169V14.12H81.9769C82.0302 14.76 82.0569 15.16 82.0569 15.32C81.9769 19.3467 80.5635 22.7067 77.8169 25.4C75.0435 28.0933 71.6702 29.44 67.6969 29.44C63.6169 29.44 60.2035 28.0667 57.4569 25.32C54.7102 22.5733 53.3369 19.1333 53.3369 15ZM90.2303 4.72C93.0036 1.94667 96.4436 0.559999 100.55 0.559999C104.657 0.559999 108.097 1.94667 110.87 4.72C113.644 7.49333 115.03 10.92 115.03 15C115.03 19.1067 113.644 22.5467 110.87 25.32C108.124 28.0667 104.684 29.44 100.55 29.44C96.417 29.44 92.977 28.0667 90.2303 25.32C87.4836 22.5733 86.1103 19.1333 86.1103 15C86.1103 10.8933 87.4836 7.46667 90.2303 4.72ZM92.9103 22.84C94.9636 24.92 97.5103 25.96 100.55 25.96C103.59 25.96 106.137 24.92 108.19 22.84C110.244 20.7067 111.27 18.0933 111.27 15C111.27 11.9067 110.244 9.30667 108.19 7.2C106.164 5.09333 103.617 4.04 100.55 4.04C97.4836 4.04 94.937 5.09333 92.9103 7.2C90.857 9.30667 89.8303 11.9067 89.8303 15C89.8303 18.0933 90.857 20.7067 92.9103 22.84Z" fill="white"/>
</svg>
